<svg xmlns="http://www.w3.org/2000/svg" width="298.761" height="192.358" viewBox="0 0 298.761 192.358">
  <g id="undraw_feeling_blue_4b7q" transform="translate(-418.143 -171.004)">
    <g id="lady" transform="translate(613.3 235.789)">
      <path id="Path_70" data-name="Path 70" d="M887.162,323.435c-.222-2.053-2.444-3.824-1.777-5.777.362-1.064,1.5-1.715,1.878-2.773a6.476,6.476,0,0,0,.142-2.206,2.316,2.316,0,0,1,.793-1.982c1.333-.889,3.048.94,4.6.567a8.161,8.161,0,0,0,1.1-.467c1.815-.722,3.868.593,4.888,2.255s1.4,3.644,2.278,5.39a4.421,4.421,0,0,0,1.346,1.713,2.093,2.093,0,0,0,2.084.242l2.544,5.666c.667,1.46,1.431,3.042,2.889,3.684.653.287,1.382.351,2.057.584a4.443,4.443,0,0,1,2.889,3.366,8.3,8.3,0,0,0,.264,1.486c.567,1.529,2.515,1.871,3.935,2.666a5.5,5.5,0,0,1,2,1.935,1.282,1.282,0,0,1,.175,1.266c-.429.693-1.733.284-2.146.989a1.844,1.844,0,0,0,0,1.209,2.569,2.569,0,0,1-3.253,2.591,4.365,4.365,0,0,1-1.3,2.864,2.8,2.8,0,0,1-3.219-.169,5.954,5.954,0,0,1-1.9-2.822c-.491-1.311-.858-2.791-1.975-3.633-.4-.3-.889-.5-1.284-.8a5.42,5.42,0,0,1-1.651-2.888,30.221,30.221,0,0,0-1.333-4.028,6.063,6.063,0,0,0-2.828-3.055c-1.211-.544-2.606-.509-3.857-.951-2.153-.76-3.746-2.571-5.888-3.424a9.526,9.526,0,0,1-1.933-1.093A2.655,2.655,0,0,1,887.162,323.435Z" transform="translate(-874.703 -310.45)" fill="#3f3d56"/>
      <g id="Group_40" data-name="Group 40" transform="translate(10.574 0.786)" opacity="0.1">
        <path id="Path_71" data-name="Path 71" d="M894.72,317.2a2.272,2.272,0,0,0,.12-.269,6.535,6.535,0,0,0,.142-2.206,3.967,3.967,0,0,1,.069-.738,3.112,3.112,0,0,0-.291,1.4A10.231,10.231,0,0,1,894.72,317.2Z" transform="translate(-892.634 -313.99)"/>
        <path id="Path_72" data-name="Path 72" d="M914.809,372.033a2.8,2.8,0,0,1-3.22-.171,5.857,5.857,0,0,1-1.891-2.824c-.491-1.311-.856-2.791-1.975-3.633-.4-.3-.889-.5-1.282-.8a5.444,5.444,0,0,1-1.653-2.877,29.908,29.908,0,0,0-1.333-4.028,6.063,6.063,0,0,0-2.829-3.055c-1.209-.544-2.6-.509-3.855-.951-2.155-.76-3.748-2.571-5.888-3.424a9.654,9.654,0,0,1-1.935-1.093,2.747,2.747,0,0,1-1.489-2.42c-.222-1.924-2.177-3.6-1.873-5.415a2.824,2.824,0,0,0-.131.3c-.667,1.955,1.555,3.726,1.777,5.777a2.742,2.742,0,0,0,1.489,2.42,9.66,9.66,0,0,0,1.935,1.093c2.14.853,3.733,2.666,5.888,3.424,1.251.444,2.646.407,3.855.951a6.111,6.111,0,0,1,2.828,3.055,27.225,27.225,0,0,1,1.333,4.028,5.432,5.432,0,0,0,1.653,2.877c.4.3.889.5,1.282.8,1.111.842,1.484,2.322,1.975,3.633a5.952,5.952,0,0,0,1.9,2.82,2.8,2.8,0,0,0,3.22.171,3.281,3.281,0,0,0,1.086-1.849A2.728,2.728,0,0,1,914.809,372.033Z" transform="translate(-885.331 -335.263)"/>
        <path id="Path_73" data-name="Path 73" d="M1038.165,446.534a.934.934,0,0,0-.106.52c.5-.5,1.635-.2,2.031-.842a.811.811,0,0,0,.1-.522C1039.676,446.179,1038.542,445.888,1038.165,446.534Z" transform="translate(-1004.121 -416.427)"/>
        <path id="Path_74" data-name="Path 74" d="M1023.378,461.853c-.042.222-.084.46-.138.691a2.608,2.608,0,0,0,3.153-2.044A2.584,2.584,0,0,1,1023.378,461.853Z" transform="translate(-992.598 -427.947)"/>
      </g>
      <g id="Group_41" data-name="Group 41" transform="translate(0 3.783)">
        <path id="Path_75" data-name="Path 75" d="M899.217,369.237s.74,1.493-1.444,1.524,1.406,9.7,1.406,9.7l3.631,4.622,4.517-2.444.26-6.741.333-4.073s-4.222-1.371-3.444-3.184S899.217,369.237,899.217,369.237Z" transform="translate(-883.887 -358.966)" fill="#fbbebe"/>
        <path id="Path_76" data-name="Path 76" d="M965.75,539.183s2.666,2.624,5.777-.858l-2.389-2.535h-3.022Z" transform="translate(-937.308 -489.504)" fill="#575a89"/>
        <path id="Path_77" data-name="Path 77" d="M965.767,535.79l-.367,3.393s2.666,2.624,5.777-.858" transform="translate(-937.036 -489.504)" opacity="0.1"/>
        <path id="Path_78" data-name="Path 78" d="M976.872,537.87a17.417,17.417,0,0,0,1.851,3.666c.778.851,2,6.739.371,6.073s-4.739-5.628-4.926-6.479a28.8,28.8,0,0,1-.258-3.26Z" transform="translate(-943.655 -491.122)" fill="#fbbebe"/>
        <path id="Path_79" data-name="Path 79" d="M832.42,538.746l14.367.556-1.666-6.075-7.237-.147Z" transform="translate(-822.495 -477.556)" fill="#575a89"/>
        <path id="Path_80" data-name="Path 80" d="M841.41,538.746l14.369.556-1.666-6.075-7.239-.147Z" transform="translate(-829.488 -477.556)" opacity="0.1"/>
        <path id="Path_81" data-name="Path 81" d="M879.979,600.585c-.34.633-.209,2.824-.056,4.444.1,1.031.2,1.824.2,1.824s-5.37,1.667-6.184.222a4.394,4.394,0,0,1-.344-1.762,35.539,35.539,0,0,1,.344-5.424s-.222-4.924-.333-5.406c-.045-.193-.113-.807-.18-1.471-.1-.987-.191-2.084-.191-2.084l7.332-3.888s0,.729-.013,1.851C880.519,592.415,880.4,599.807,879.979,600.585Z" transform="translate(-865.353 -529.367)" fill="#fbbebe"/>
        <path id="Path_82" data-name="Path 82" d="M881.388,669.377s-5.37,1.666-6.184.222a4.391,4.391,0,0,1-.344-1.762,24.149,24.149,0,0,1,6.323-.284C881.281,668.584,881.388,669.377,881.388,669.377Z" transform="translate(-866.613 -591.892)" opacity="0.1"/>
        <path id="Path_83" data-name="Path 83" d="M879.989,698.928H879.9c-.647.024-4.322,0-4.322,0a2,2,0,0,1-.151-.178,3.031,3.031,0,0,1-.478-2.933,20.873,20.873,0,0,0,.74-5.148,2.386,2.386,0,0,0,.038-1.333,2.407,2.407,0,0,1-.076-1.222,3.159,3.159,0,0,0-.222-.851,2.538,2.538,0,0,1,.038-1.26,9.432,9.432,0,0,0-.371-2.333c-.333-.962-2.777-12.4-2.184-13.776,0,0,5.184-.889,7.148-.222l-.26,8.888s-.927,2.666-.149,3.371.038,2.889.038,2.889-.111.406.556,1.777,0,2,0,2v2.629a5.621,5.621,0,0,0,.073,3.222C880.913,695.891,880.249,698.881,879.989,698.928Z" transform="translate(-865.029 -593.447)" fill="#3f3d56"/>
        <path id="Path_84" data-name="Path 84" d="M927.269,596.618c-.34.633-.209,2.824-.056,4.444.1,1.031.2,1.824.2,1.824s-5.37,1.666-6.183.222a4.389,4.389,0,0,1-.344-1.762,35.516,35.516,0,0,1,.344-5.424s-.222-4.924-.333-5.406c-.06-.26-.165-2.74-.247-4.964-.069-1.9-.125-3.613-.125-3.613l7.332,1.133s0,3.224-.091,6.537C927.691,592.823,927.542,596.116,927.269,596.618Z" transform="translate(-902.135 -525.4)" fill="#fbbebe"/>
        <path id="Path_85" data-name="Path 85" d="M928.678,669.377s-5.37,1.666-6.184.222a4.393,4.393,0,0,1-.344-1.762,24.149,24.149,0,0,1,6.324-.284C928.571,668.584,928.678,669.377,928.678,669.377Z" transform="translate(-903.395 -591.892)" opacity="0.1"/>
        <path id="Path_86" data-name="Path 86" d="M927.255,698.9h-.085c-.646.024-4.322,0-4.322,0a2.049,2.049,0,0,1-.151-.178,3.031,3.031,0,0,1-.478-2.933,20.841,20.841,0,0,0,.733-5.157,2.385,2.385,0,0,0,.038-1.333,2.409,2.409,0,0,1-.076-1.222,3.165,3.165,0,0,0-.222-.851,2.539,2.539,0,0,1,.038-1.26,9.424,9.424,0,0,0-.371-2.333c-.333-.962-2.777-12.405-2.184-13.776,0,0,5.184-.889,7.148-.222l-.26,8.888s-.927,2.666-.149,3.371.038,2.888.038,2.888-.111.407.556,1.777,0,2,0,2v2.629a5.621,5.621,0,0,0,.073,3.222C928.173,695.851,927.515,698.85,927.255,698.9Z" transform="translate(-901.788 -593.415)" fill="#3f3d56"/>
        <circle id="Ellipse_8" data-name="Ellipse 8" cx="5.221" cy="5.221" r="5.221" transform="translate(12.998 1.574)" opacity="0.1"/>
        <circle id="Ellipse_9" data-name="Ellipse 9" cx="5.221" cy="5.221" r="5.221" transform="translate(12.998 1.352)" fill="#fbbebe"/>
        <path id="Path_87" data-name="Path 87" d="M873.24,590.928l7.332-3.888s0,.729-.013,1.851c-1.071.64-2.686,1.6-4.24,2.511-.844.5-1.669.975-2.375,1.378a3.161,3.161,0,0,1-.513.222C873.333,592.026,873.24,590.928,873.24,590.928Z" transform="translate(-865.353 -529.367)" opacity="0.1"/>
        <path id="Path_88" data-name="Path 88" d="M927.893,583.033s0,3.224-.091,6.537h-.026a12.332,12.332,0,0,1-1.642-.051c-.958-.1-1.724-.355-2-.858a13.138,13.138,0,0,0-3.439-3.148c-.069-1.9-.124-3.613-.124-3.613Z" transform="translate(-902.166 -525.369)" opacity="0.1"/>
        <path id="Path_89" data-name="Path 89" d="M862.1,396.892a21.128,21.128,0,0,0-.107,4.362c3.368,2.777,2.74,8.628,2.74,8.628s2.593,11.852,2.038,12.925,1.258,7.666,1.258,7.666a32.335,32.335,0,0,1-4.682.538,12.308,12.308,0,0,1-1.642-.051c-.958-.1-1.724-.356-2-.858-1.035-1.813-5.517-4.517-5.517-4.517s-2.84,1.7-5.484,3.251c-.844.5-1.668.975-2.375,1.378a4.409,4.409,0,0,1-1.855.509c-3.144.233-7.332-1.735-6.666-2.433.815-.853,4.853-15.813,4.853-15.813s2.035-9.259,3.813-10.554a1.923,1.923,0,0,0,.667-.931c.609-1.691-.409-4.4-.409-4.4s-5.739-7.072-5.481-7.481a10.351,10.351,0,0,0,.26-2.591s.7-3.444,1.111-5.11,3.333-2.075,4.184-1.926,2.775.667,3.588,0,2.186.26,2.186.26l3.373.929,3.033-1.778s3.04.155,3.3.562,4.259,1.186,4.259,1.186c2.035,1.369,1.962,7.888,1.962,7.888s-4.888,4.257-5.888,6.444A7.349,7.349,0,0,0,862.1,396.892Z" transform="translate(-837.742 -367.466)" fill="#575a89"/>
        <path id="Path_90" data-name="Path 90" d="M954.9,418.2l1.111.889,1.149,10.332,1.147,10.37s.444,1.038.815.927.333,6.146.333,6.146-4.253-2.615-5.777.858l-1.187-8.374s-1.52-8.554-1.482-9.221-.778-7.888-.778-7.888Z" transform="translate(-925.236 -398.042)" fill="#575a89"/>
        <path id="Path_91" data-name="Path 91" d="M852.072,420.37l-.816,1s.076,4.295-.555,5.333,1.742,7.11,2.631,6.739,2.889-9.85,2.889-9.961S852.072,420.37,852.072,420.37Z" transform="translate(-847.74 -399.73)" fill="#575a89"/>
        <path id="Path_92" data-name="Path 92" d="M848.446,447.87s-2.593,2.628-2.409,3.888,2.666,5.217,6.221,3.091C852.258,454.849,855.556,448.648,848.446,447.87Z" transform="translate(-844.187 -421.12)" fill="#575a89"/>
        <path id="Path_93" data-name="Path 93" d="M889.033,800.2c-.647.024-4.322,0-4.322,0a1.95,1.95,0,0,1-.151-.178C885.5,799.706,887.531,799.226,889.033,800.2Z" transform="translate(-874.157 -694.715)" opacity="0.1"/>
        <path id="Path_94" data-name="Path 94" d="M936.343,800.2c-.646.024-4.322,0-4.322,0a1.97,1.97,0,0,1-.151-.178C932.805,799.706,934.836,799.226,936.343,800.2Z" transform="translate(-910.956 -694.715)" opacity="0.1"/>
        <path id="Path_95" data-name="Path 95" d="M872.51,509.11c-.567,5.435-.38,16.22-.262,21.01-.844.5-1.669.975-2.375,1.378a4.409,4.409,0,0,1-1.855.509C867.782,530.558,871.044,515.678,872.51,509.11Z" transform="translate(-861.281 -468.752)" opacity="0.1"/>
        <path id="Path_96" data-name="Path 96" d="M888.973,495.23c-.016.078-.284,1.26-.693,3.084A7.87,7.87,0,0,1,888.973,495.23Z" transform="translate(-877.051 -457.957)" opacity="0.1"/>
        <path id="Path_97" data-name="Path 97" d="M910.385,492.59s3.148,19.775-6.175,22.219C904.208,514.8,910.66,513.82,910.385,492.59Z" transform="translate(-889.441 -455.903)" opacity="0.1"/>
        <path id="Path_98" data-name="Path 98" d="M938.447,518.63a12.338,12.338,0,0,1-1.642-.051L934.29,491.54C935.894,492.589,937.814,511.777,938.447,518.63Z" transform="translate(-912.838 -455.086)" opacity="0.1"/>
        <path id="Path_99" data-name="Path 99" d="M898.141,331.756a1.376,1.376,0,0,1,.5.051,2.162,2.162,0,0,1,.626.471,2.233,2.233,0,0,0,2.12.411,2.8,2.8,0,0,1,.8-.222,1.271,1.271,0,0,1,1.011.667c.22.355.333.778.522,1.158a1.455,1.455,0,0,0,.907.833,1.586,1.586,0,0,1,.578.133.817.817,0,0,1,.249.344c.347.749.622,1.633,1.362,2a2.038,2.038,0,0,0,.869.189,1.816,1.816,0,0,0,.889-.16,1.7,1.7,0,0,0,.653-.651,4.06,4.06,0,0,0,.406-2.6,7.144,7.144,0,0,0-1.162-3.124,6.521,6.521,0,0,0-5.966-2.753,8.323,8.323,0,0,0-1.189.222A6.494,6.494,0,0,0,897.652,331a7.712,7.712,0,0,1-.682.84C897.359,331.8,897.75,331.765,898.141,331.756Z" transform="translate(-883.81 -328.253)" opacity="0.1"/>
        <path id="Path_100" data-name="Path 100" d="M898.141,330.756a1.374,1.374,0,0,1,.5.051,2.161,2.161,0,0,1,.626.471,2.233,2.233,0,0,0,2.12.411,2.8,2.8,0,0,1,.8-.222,1.271,1.271,0,0,1,1.011.667c.22.356.333.778.522,1.158a1.454,1.454,0,0,0,.907.833,1.587,1.587,0,0,1,.578.133.817.817,0,0,1,.249.344c.347.749.622,1.633,1.362,2a2.038,2.038,0,0,0,.869.189,1.816,1.816,0,0,0,.889-.16,1.7,1.7,0,0,0,.653-.651,4.06,4.06,0,0,0,.406-2.6,7.144,7.144,0,0,0-1.162-3.124,6.521,6.521,0,0,0-5.966-2.753,8.311,8.311,0,0,0-1.189.222A6.494,6.494,0,0,0,897.652,330a7.711,7.711,0,0,1-.682.84C897.359,330.8,897.75,330.765,898.141,330.756Z" transform="translate(-883.81 -327.476)" fill="#3f3d56"/>
        <path id="Path_101" data-name="Path 101" d="M873.562,398.2s.26,2.075-.629,2.593S873.562,398.2,873.562,398.2Z" transform="translate(-864.897 -382.486)" opacity="0.1"/>
        <path id="Path_102" data-name="Path 102" d="M961.57,462.2s2.111-3.111,2.409-2.222S961.57,462.2,961.57,462.2Z" transform="translate(-934.057 -430.415)" opacity="0.1"/>
        <path id="Path_103" data-name="Path 103" d="M962.24,468.943s2.082-2.555,2.282-1.555S962.24,468.943,962.24,468.943Z" transform="translate(-934.578 -436.12)" opacity="0.1"/>
        <path id="Path_104" data-name="Path 104" d="M890.789,458.438a3.379,3.379,0,0,1-2.093-.689h-.182a3.289,3.289,0,0,1-2.286.86,3.244,3.244,0,0,1-2.371-.951h-.242a3.491,3.491,0,0,1-4.506-.082l-.869-.016s1.018,2.711.409,4.4l14.849.264a21.136,21.136,0,0,1,.107-4.362v-.02l-.816-.016A3.417,3.417,0,0,1,890.789,458.438Z" transform="translate(-869.242 -428.656)" opacity="0.1"/>
        <path id="Path_105" data-name="Path 105" d="M890.789,460.438a3.379,3.379,0,0,1-2.093-.689h-.182a3.289,3.289,0,0,1-2.286.86,3.244,3.244,0,0,1-2.371-.951h-.242a3.491,3.491,0,0,1-4.506-.082l-.869-.016s1.018,2.711.409,4.4l14.849.264a21.136,21.136,0,0,1,.107-4.362v-.02l-.816-.016A3.417,3.417,0,0,1,890.789,460.438Z" transform="translate(-869.242 -430.212)" opacity="0.1"/>
        <path id="Path_106" data-name="Path 106" d="M890.789,459.438a3.38,3.38,0,0,1-2.093-.689h-.182a3.288,3.288,0,0,1-2.286.86,3.244,3.244,0,0,1-2.371-.951h-.242a3.491,3.491,0,0,1-4.506-.082l-.869-.016s1.018,2.711.409,4.4l14.849.264a21.136,21.136,0,0,1,.107-4.362v-.02l-.816-.016a3.417,3.417,0,0,1-2,.609Z" transform="translate(-869.242 -429.434)" fill="#3f3d56"/>
        <path id="Path_107" data-name="Path 107" d="M931.75,395.83s3.126.2,3.146.644S931.75,395.83,931.75,395.83Z" transform="translate(-910.862 -380.642)" opacity="0.1"/>
        <path id="Path_108" data-name="Path 108" d="M886.556,387.3s-3.126.2-3.146.644S886.556,387.3,886.556,387.3Z" transform="translate(-873.263 -374.008)" opacity="0.1"/>
        <path id="Path_109" data-name="Path 109" d="M938.078,427.98c-.031-.022-.062-.04-.093-.06.8.72.667,2.293-.316,3.591s-2.473,1.837-3.38,1.255c.029.024.053.051.084.076.889.68,2.444.147,3.471-1.2S938.971,428.662,938.078,427.98Z" transform="translate(-912.838 -405.602)" opacity="0.1"/>
        <path id="Path_110" data-name="Path 110" d="M871.5,430.729c-.791-1.427-.689-3,.206-3.6-.033.016-.069.029-.1.047-.982.547-1.111,2.184-.3,3.659s2.28,2.222,3.262,1.684a.848.848,0,0,0,.093-.062C873.686,432.9,872.3,432.156,871.5,430.729Z" transform="translate(-863.437 -404.988)" opacity="0.1"/>
        <path id="Path_111" data-name="Path 111" d="M875.248,387.315h0l-.286.444-.731-.389.384-.591A1.61,1.61,0,0,1,875.248,387.315Z" transform="translate(-866.123 -373.603)" opacity="0.1"/>
        <path id="Path_112" data-name="Path 112" d="M855.377,428.192s.651-3.062-.222-4.035-.593-6.075.74-5.964,3.333,4.146,3,5-1.593,5.221-1.593,5.221Z" transform="translate(-850.895 -398.036)" fill="#fbbebe"/>
        <path id="Path_113" data-name="Path 113" d="M909.22,345.463a1.7,1.7,0,0,1-.653.651,1.816,1.816,0,0,1-.889.16,2.038,2.038,0,0,1-.869-.189c-.74-.369-1.015-1.253-1.362-2a.818.818,0,0,0-.227-.351,1.588,1.588,0,0,0-.571-.14,1.466,1.466,0,0,1-.906-.833c-.191-.378-.3-.8-.522-1.158a1.224,1.224,0,0,0-1.011-.667,2.729,2.729,0,0,0-.8.233,2.24,2.24,0,0,1-2.12-.413,2.162,2.162,0,0,0-.627-.471,1.374,1.374,0,0,0-.5-.051c-.256,0-.509.024-.764.044a5.6,5.6,0,0,1-.407.475c.389-.033.78-.067,1.171-.076a1.377,1.377,0,0,1,.5.051,2.163,2.163,0,0,1,.627.471,2.24,2.24,0,0,0,2.12.413,2.727,2.727,0,0,1,.8-.233,1.27,1.27,0,0,1,1.011.667c.22.355.333.778.522,1.158a1.455,1.455,0,0,0,.906.833,1.589,1.589,0,0,1,.571.14.819.819,0,0,1,.249.344c.347.749.622,1.633,1.362,2a2.039,2.039,0,0,0,.869.189,1.815,1.815,0,0,0,.889-.16,1.7,1.7,0,0,0,.653-.651,3.687,3.687,0,0,0,.444-2.057A3.4,3.4,0,0,1,909.22,345.463Z" transform="translate(-883.833 -337.397)" opacity="0.1"/>
        <ellipse id="Ellipse_10" data-name="Ellipse 10" cx="2" cy="1.355" rx="2" ry="1.355" transform="translate(3.466 29.875)" fill="#575a89"/>
      </g>
    </g>
    <g id="elips" transform="translate(518.401 229.359)">
      <circle id="Ellipse_11" data-name="Ellipse 11" cx="52.104" cy="52.104" r="52.104" transform="translate(0 0)" fill="#00628e"/>
      <path id="Path_114" data-name="Path 114" d="M461.787,543.938c0,8.225-12.93.7-26.793.7s-27.884,7.212-27.884-1.013c0-4.69,4.469-11.213,10.88-15.95h0c4.83-3.57,10.762-6.128,16.721-6.128,6.127,0,12.13,2.768,16.918,6.568C457.671,532.91,461.787,539.348,461.787,543.938Z" transform="translate(-382.345 -465.651)" fill="#444053"/>
      <path id="Path_131" data-name="Path 131" d="M621.344,442.618c.991-.056,5.658-.407,8.622-2.1a3.358,3.358,0,0,1,1.565-.461c.943-.027,2.027.367,1.333,2.569-1.125,3.6-7.656,7.656-11.71,7.431a13.431,13.431,0,0,1-11.576-7.31,3.375,3.375,0,0,1-.417-1.738c.036-1.115.441-2.512,2.533-.954,2.827,2.1,8.191,2.5,9.267,2.56A3.521,3.521,0,0,0,621.344,442.618Z" transform="translate(-550.27 -397.346)" fill="#444053"/>
      <path id="Path_130" data-name="Path 130" d="M399.344,442.618c.991-.056,5.658-.407,8.622-2.1a3.359,3.359,0,0,1,1.566-.461c.942-.027,2.027.367,1.333,2.569-1.125,3.6-7.656,7.656-11.709,7.431a13.432,13.432,0,0,1-11.576-7.31,3.379,3.379,0,0,1-.417-1.738c.036-1.115.441-2.512,2.534-.954,2.827,2.1,8.191,2.5,9.267,2.56A3.525,3.525,0,0,0,399.344,442.618Z" transform="translate(-365.764 -397.346)" fill="#444053"/>
      <path id="Path_115" data-name="Path 115" d="M505.167,528.1c-7.369-1.11-20.7-2.462-33.637-.441,4.83-3.571,10.762-6.128,16.72-6.128C494.376,521.53,500.379,524.3,505.167,528.1Z" transform="translate(-435.885 -465.635)" fill="#f6f8fb"/>
    </g>
    <g id="other-part" transform="translate(418.144 171.004)">
      <path id="Path_65" data-name="Path 65" d="M61.83,433.31c4.729,18.277,14.732,34.077,30.54,41.735,32.862,15.917,106.975,7.708,162.289-1.715,28.612-4.873,53.761-18.323,72.03-37.251Z" transform="translate(-58.604 -327.395)" fill="#00628e" opacity="0.1"/>
      <path id="Path_66" data-name="Path 66" d="M372.317,64.177H341.968a2.385,2.385,0,1,1,0-4.746h5.249a2.385,2.385,0,1,1,0-4.746h-3.746a2.385,2.385,0,1,1,0-4.746h15.84a45.393,45.393,0,0,0-12.358-3.082c-43.195-5.018-58.616-1.7-64.056,1.713a63.852,63.852,0,0,1-22.2,8.805C234.048,62.35,184.21,68.334,139.038,55.47,116.587,49.063,99.9,59.875,89.9,77.948H377.588A39.053,39.053,0,0,0,374.024,63.6,2.769,2.769,0,0,1,372.317,64.177Z" transform="translate(-79.032 -44.294)" fill="#00628e" opacity="0.1"/>
      <path id="Path_67" data-name="Path 67" d="M50.634,293.19a109.6,109.6,0,0,0,1.176,31.888L318.27,333.9a113.042,113.042,0,0,0,18.514-25.544Zm105.388,22.748h-5.247a2.385,2.385,0,1,1,0,4.746H120.426a2.385,2.385,0,1,1,0-4.746h5.249a2.385,2.385,0,1,1,0-4.746h-3.749a2.385,2.385,0,1,1,0-4.746h30.349a2.385,2.385,0,1,1,0,4.746h3.746a2.385,2.385,0,1,1,0,4.746Z" transform="translate(-49.981 -225.425)" fill="#00628e" opacity="0.1"/>
      <path id="Path_68" data-name="Path 68" d="M350.4,168.5,59.487,174.9a96.519,96.519,0,0,0-6.967,27.18H345.3a103.265,103.265,0,0,0,4.226-17.324A74.163,74.163,0,0,0,350.4,168.5ZM111.585,189.478h-5.247a2.386,2.386,0,1,1,0,4.748H75.989a2.386,2.386,0,1,1,0-4.748h5.249a2.385,2.385,0,1,1,0-4.746H77.489a2.385,2.385,0,1,1,0-4.746h30.349a2.385,2.385,0,1,1,0,4.746h3.746a2.385,2.385,0,1,1,0,4.746Z" transform="translate(-51.829 -134.683)" fill="#00628e" opacity="0.1"/>
      <path id="Path_116" data-name="Path 116" d="M340.031,281.31s-25.3,16.175-25.095,41.477S340.031,281.31,340.031,281.31Z" transform="translate(-242.798 -216.779)" opacity="0.05"/>
      <path id="Path_117" data-name="Path 117" d="M822.719,113.441s-22.925-1.38-20.221,14.683a3.9,3.9,0,0,0,2.037,4.128s.041-1.19,2.35-.787a10.619,10.619,0,0,0,2.491.12,5.173,5.173,0,0,0,3.044-1.258h0s6.444-2.66,8.952-13.194c0,0,1.854-2.3,1.781-2.886l-3.869,1.65s1.32,2.791.272,5.11c0,0-.125-5.007-.868-4.9-.15.024-2.009.967-2.009.967s2.273,4.863.544,8.394c0,0,.651-5.99-1.269-8.043l-2.723,1.59s2.658,5.021.855,9.118c0,0,.463-6.284-1.427-8.732l-2.47,1.925s2.5,4.95.975,8.348c0,0-.2-7.316-1.508-7.868a15.107,15.107,0,0,0-2.489,2.687s1.71,3.591.651,5.486c0,0-.651-4.874-1.184-4.9,0,0-2.151,3.229-2.377,5.445a11.771,11.771,0,0,1,1.854-5.753,6.459,6.459,0,0,0-3.292,1.707s.335-2.284,3.812-2.483a14.894,14.894,0,0,1,2.254-2.6,14.126,14.126,0,0,0-5.576.643s1.852-2.154,6.211-1.176l2.45-1.988s-4.568-.626-6.507.065c0,0,2.23-1.906,7.163-.517l2.655-1.587a24.341,24.341,0,0,0-6.219-.545s2.45-1.32,6.994.112l1.906-.852s-2.856-.561-3.692-.648-.879-.321-.879-.321a9.9,9.9,0,0,1,5.372.623S822.787,113.694,822.719,113.441Z" transform="translate(-597.453 -94.593)" fill="#00628e"/>
      <path id="Path_118" data-name="Path 118" d="M766.315,87.254s-10.346-.626-9.137,6.632a1.771,1.771,0,0,0,.92,1.865s.016-.545,1.062-.354a4.918,4.918,0,0,0,1.125.054,2.366,2.366,0,0,0,1.378-.569h0s2.911-1.2,4.043-5.963c0,0,.839-1.037.817-1.3l-1.748.746a3.126,3.126,0,0,1,.128,2.309s-.057-2.263-.392-2.208c-.068,0-.909.436-.909.436s1.029,2.2.253,3.793c0,0,.294-2.706-.572-3.635l-1.231.719s1.2,2.271.387,4.122c0,0,.207-2.84-.645-3.945l-1.116.869s1.127,2.235.441,3.771c0,0-.09-3.305-.683-3.556a6.828,6.828,0,0,0-1.124,1.214s.773,1.634.294,2.48c0,0-.294-2.2-.545-2.211a7.3,7.3,0,0,0-1.073,2.45,5.3,5.3,0,0,1,.836-2.6,2.915,2.915,0,0,0-1.487.771s.15-1.032,1.726-1.122a6.793,6.793,0,0,1,1.018-1.173,6.384,6.384,0,0,0-2.518.291,2.845,2.845,0,0,1,2.807-.545l1.089-.9a9.455,9.455,0,0,0-2.94.027s1.008-.86,3.237-.231l1.2-.719a10.894,10.894,0,0,0-2.81-.242,4.309,4.309,0,0,1,3.161.052l.858-.387s-1.29-.253-1.666-.291-.4-.144-.4-.144a4.462,4.462,0,0,1,2.423.272A10.959,10.959,0,0,0,766.315,87.254Z" transform="translate(-564.562 -75.548)" fill="#00628e"/>
    </g>
    <g id="footer" transform="translate(418.144 326.388)">
      <ellipse id="Ellipse_12" data-name="Ellipse 12" cx="7.535" cy="1.273" rx="7.535" ry="1.273" transform="translate(283.691 11.653)" fill="#00628e" opacity="0.1"/>
      <ellipse id="Ellipse_13" data-name="Ellipse 13" cx="7.535" cy="1.273" rx="7.535" ry="1.273" transform="translate(1.283 32.831)" fill="#00628e" opacity="0.1"/>
      <ellipse id="Ellipse_14" data-name="Ellipse 14" cx="7.535" cy="1.273" rx="7.535" ry="1.273" transform="translate(45.023 34.429)" fill="#00628e" opacity="0.1"/>
      <g id="bottom-right" transform="translate(263.485 18.275)">
        <ellipse id="Ellipse_15" data-name="Ellipse 15" cx="11.25" cy="1.903" rx="11.25" ry="1.903" transform="translate(0 6.392)" fill="#00628e"/>
        <path id="Path_119" data-name="Path 119" d="M1053.98,794.052a3.283,3.283,0,0,0,1.074-1.62,1.443,1.443,0,0,0-.75-1.648c-.688-.263-1.424.216-1.981.7a2.656,2.656,0,0,1-1.928.929,2.93,2.93,0,0,0,.907-2.745,1.153,1.153,0,0,0-.252-.56c-.383-.409-1.074-.235-1.533.087-1.455,1.024-1.86,3-1.869,4.779a8.974,8.974,0,0,1-.025-1.958,2.023,2.023,0,0,0-.739-1.743,2.239,2.239,0,0,0-1.119-.263,2.329,2.329,0,0,0-1.83.518,1.8,1.8,0,0,0,.073,2.238,7.261,7.261,0,0,0,1.891,1.516,4.2,4.2,0,0,1,1.354,1.29,1.365,1.365,0,0,1,.1.232h4.1A11.405,11.405,0,0,0,1053.98,794.052Z" transform="translate(-1038.079 -788.866)" fill="#00628e"/>
      </g>
      <g id="bottom-left" transform="translate(0)">
        <path id="Path_121" data-name="Path 121" d="M98.664,723.55a2.519,2.519,0,0,1,.313.63c2.692,3.162,4.124,6.113,1.539,6.186-2.412.07-5.316,4.379-6,5.467a2.607,2.607,0,0,0,.084.249s3.388-5.635,6.155-5.716S101.7,726.938,98.664,723.55Z" transform="translate(-86.329 -723.55)" opacity="0.1"/>
        <path id="Path_122" data-name="Path 122" d="M118.625,731.52c0,.708-.081,1.281-.179,1.281s-.176-.56-.176-1.281.1-.375.2-.375S118.625,730.812,118.625,731.52Z" transform="translate(-103.434 -728.96)" fill="#ffd037"/>
        <path id="Path_123" data-name="Path 123" d="M119.88,734.475c-.621.339-1.161.543-1.209.456s.42-.428,1.041-.767.375-.092.422,0S120.512,734.136,119.88,734.475Z" transform="translate(-103.721 -731.07)" fill="#ffd037"/>
        <path id="Path_120" data-name="Path 120" d="M98.431,723.55s1.536,2.009-.711,5.036-4.1,5.6-3.358,7.487c0,0,3.388-5.635,6.155-5.716S101.464,726.938,98.431,723.55Z" transform="translate(-86.096 -723.55)" fill="#00628e"/>
        <path id="Path_124" data-name="Path 124" d="M71.422,723.55s-1.536,2.009.708,5.036,4.1,5.6,3.358,7.487c0,0-3.391-5.635-6.155-5.716S68.386,726.938,71.422,723.55Z" transform="translate(-67.207 -723.55)" fill="#00628e"/>
        <path id="Path_126" data-name="Path 126" d="M70.1,731.52c0,.708.078,1.281.176,1.281s.176-.56.176-1.281-.1-.375-.2-.375S70.1,730.812,70.1,731.52Z" transform="translate(-68.742 -728.96)" fill="#ffd037"/>
        <path id="Path_125" data-name="Path 125" d="M71.412,723.55a2.412,2.412,0,0,0-.313.63c-2.692,3.162-4.127,6.113-1.539,6.186,2.409.07,5.316,4.379,5.993,5.467a2.589,2.589,0,0,1-.081.249s-3.391-5.635-6.155-5.716S68.376,726.938,71.412,723.55Z" transform="translate(-67.196 -723.55)" opacity="0.1"/>
        <path id="Path_127" data-name="Path 127" d="M65.621,734.475c.621.339,1.164.543,1.212.456s-.42-.428-1.041-.767-.378-.092-.423,0S65,734.136,65.621,734.475Z" transform="translate(-65.245 -731.07)" fill="#ffd037"/>
        <path id="Path_128" data-name="Path 128" d="M71.85,761.412s4.3-.132,5.6-1.055,6.612-2.023,6.933-.56,6.458,7.359,1.606,7.4-11.273-.758-12.565-1.544S71.85,761.412,71.85,761.412Z" transform="translate(-70.002 -749.143)" fill="#a8a8a8"/>
        <path id="Path_129" data-name="Path 129" d="M86.066,772.668c-4.852.039-11.273-.758-12.566-1.544-.985-.6-1.377-2.75-1.508-3.744H71.85s.28,3.467,1.564,4.253,7.714,1.584,12.565,1.544c1.4,0,1.883-.512,1.858-1.248C87.642,772.38,87.11,772.66,86.066,772.668Z" transform="translate(-70.002 -755.117)" opacity="0.2"/>
      </g>
      <ellipse id="Ellipse_7" data-name="Ellipse 7" cx="122.688" cy="11.505" rx="122.688" ry="11.505" transform="translate(23.179 5.478)" fill="#00628e" opacity="0.1"/>
    </g>
  </g>
</svg>
